PathFileType	4	(X/Y/Z)	C:/Users/opensim2020/Desktop/walking_exp_matlab/subject02_walking15_straight_03.trc																																																																																																																												
DataRate	CameraRate	NumFrames	NumMarkers	Units	OrigDataRate	OrigDataStartFrame	OrigNumFrames																																																																																																																								
100	100	6	42	mm	100	1316	103																																																																																																																								
Frame#	Time	LFHD			RFHD			LBHD			RBHD			C7			T10			CLAV			STRN			RBAK			LSHO			LUPA			LELB			LFRM			LWRA			LWRB			LFIN			RSHO			RUPA			RELB			RFRM			RWRA			RWRB			RFIN			LASI			RASI			LPSI			RPSI			LTHI			LKNE			LTIB			LANK			LHEE			LTOE			RTHI			RKNE			RTIB			RANK			RHEE			RTOE			*39			*40			*41		
		X1	Y1	Z1	X2	Y2	Z2	X3	Y3	Z3	X4	Y4	Z4	X5	Y5	Z5	X6	Y6	Z6	X7	Y7	Z7	X8	Y8	Z8	X9	Y9	Z9	X10	Y10	Z10	X11	Y11	Z11	X12	Y12	Z12	X13	Y13	Z13	X14	Y14	Z14	X15	Y15	Z15	X16	Y16	Z16	X17	Y17	Z17	X18	Y18	Z18	X19	Y19	Z19	X20	Y20	Z20	X21	Y21	Z21	X22	Y22	Z22	X23	Y23	Z23	X24	Y24	Z24	X25	Y25	Z25	X26	Y26	Z26	X27	Y27	Z27	X28	Y28	Z28	X29	Y29	Z29	X30	Y30	Z30	X31	Y31	Z31	X32	Y32	Z32	X33	Y33	Z33	X34	Y34	Z34	X35	Y35	Z35	X36	Y36	Z36	X37	Y37	Z37	X38	Y38	Z38	X39	Y39	Z39	X40	Y40	Z40	X41	Y41	Z41	X42	Y42	Z42
																																																																																																																															
39	0.38	-220.7825	1723.05322	1392.50195	-219.93941	1711.70874	1536.6333	-359.60257	1664.4115	1390.31616	-371.39307	1653.26489	1533.38367	-424.91678	1523.10706	1463.71472	-477.68958	1246.65833	1481.51611	-288.46829	1453.77966	1458.10132	-235.9836	1283.43225	1475.31213	-487.99988	1348.74377	1532.43311	-353.04285	1489.67822	1286.48193	-404.76218	1296.58496	1202.46753	-443.65421	1166.58533	1188.61633	-484.48511	1048.27002	1158.84045	-482.4711	907.01135	1166.83142	-524.64478	933.07263	1137.51843	-533.44012	867.2782	1125.32397	-363.20465	1498.31458	1650.2074	-399.23175	1324.0592	1753.69312	-371.63699	1185.57385	1805.13928	-299.72147	1086.62122	1825.89636	-206.48181	991.07275	1805.49548	-244.30348	969.02386	1841.31799	-182.22391	931.37976	1842.75183	-257.98975	978.09601	1360.98218	-265.55865	968.61322	1615.44128	-465.4744	1033.87292	1430.80188	-473.70612	1034.95374	1545.86267	-282.74652	663.58563	1326.22302	-287.33368	467.04175	1385.31653	-345.13263	281.76706	1408.55432	-344.8613	66.49538	1470.0719	-377.66226	41.61477	1526.05627	-192.18359	33.11567	1445.31042	-353.04926	673.20178	1708.41992	-363.33051	472.2843	1707.22498	-514.59808	367.89645	1697.06323	-653.92688	240.01518	1653.08325	-695.77783	219.1611	1584.56665	-615.7832	89.09618	1702.24805	-311.59671	1804.30957	1480.65479	2846.00537	1034.30774	-3357.46191	NaN	NaN	NaN
40	0.39	-207.59952	1725.08679	1392.41052	-206.8839	1713.79944	1536.50562	-346.48169	1666.646	1390.14856	-358.55692	1655.67786	1533.00159	-411.92795	1525.24536	1463.45435	-464.33057	1248.6178	1480.52759	-275.49576	1456.05847	1458.16003	-222.74934	1285.75769	1475.24182	-474.99237	1350.29773	1531.00195	-339.83347	1492.31763	1286.29492	-387.2767	1297.50879	1202.33398	-423.80499	1166.67334	1188.96252	-461.97928	1047.11865	1159.77148	-456.28284	905.92944	1170.18896	-498.21945	930.48792	1139.63	-504.77914	864.31757	1128.07153	-351.43213	1499.84912	1649.88245	-389.0401	1325.1853	1752.01721	-363.25287	1186.07373	1802.78357	-294.18649	1085.30078	1824.10754	-203.26715	986.79254	1803.42883	-242.08369	966.04822	1839.33179	-181.51122	925.8656	1840.25183	-245.13631	979.89508	1360.22974	-251.93108	972.04126	1615.32288	-452.20831	1036.04126	1429.99316	-460.00732	1037.62012	1544.79663	-275.10349	663.6015	1326.62207	-284.17877	467.20673	1385.54529	-343.84219	282.35727	1408.94641	-344.70685	66.75004	1470.22449	-377.51221	41.95107	1526.17554	-192.0313	32.93642	1445.40137	-331.79706	675.57764	1707.79016	-336.16934	475.2706	1706.67065	-485.42807	368.30444	1695.9519	-622.16577	237.58858	1652.3988	-664.28674	214.73318	1584.03015	-579.69678	89.06273	1703.19873	-298.35425	1806.58301	1480.46228	2845.97437	1034.39331	-3357.35059	NaN	NaN	NaN
41	0.4	-194.40433	1726.90356	1392.33691	-193.79955	1715.70129	1536.42053	-333.37238	1668.64636	1390.12634	-345.29263	1657.27856	1532.77625	-399.05997	1527.11755	1463.14856	-450.96289	1250.47156	1479.54272	-262.50031	1458.10413	1458.18848	-209.51408	1287.81604	1475.05933	-461.94113	1351.97131	1529.98523	-326.6795	1494.73877	1286.09009	-370.27502	1298.67676	1202.18835	-404.5419	1166.6781	1188.99927	-438.63843	1045.4563	1160.65845	-428.92737	904.67804	1173.71533	-471.1824	927.74237	1141.75244	-475.65411	861.40045	1130.79907	-339.04681	1501.43921	1649.95508	-378.73956	1326.11243	1750.2384	-354.82129	1186.58508	1800.45386	-288.69067	1083.74097	1821.85388	-200.85152	982.31836	1801.36377	-240.3076	963.07184	1837.43372	-181.42557	920.26257	1838.00598	-232.38618	981.72583	1359.59729	-238.28371	975.51697	1615.00769	-438.91003	1037.89941	1429.19885	-446.22565	1040.0365	1543.85742	-268.49826	663.77997	1327.86145	-280.96182	467.27219	1385.69812	-342.48761	282.89468	1409.2854	-344.55078	66.99016	1470.35986	-377.59198	42.42231	1526.39282	-191.97194	33.09599	1445.15393	-310.44736	678.45929	1707.47998	-309.32367	478.03934	1705.65784	-455.90939	367.97961	1694.96484	-589.61945	233.93465	1651.97192	-632.07452	209.1604	1583.90686	-541.24927	88.34393	1704.11694	-285.13211	1808.57202	1480.30432	2846.7251	1034.35522	-3355.448	NaN	NaN	NaN
42	0.41	-181.30795	1728.52563	1392.16809	-180.6982	1717.3739	1536.38794	-320.29852	1670.35583	1390.03638	-332.26096	1659.04541	1532.65234	-385.81964	1528.67957	1462.83325	-437.67252	1252.01709	1478.47034	-249.42075	1459.90625	1458.1178	-196.34634	1289.53333	1474.73743	-448.92029	1353.04346	1528.61841	-313.62918	1496.93018	1285.91553	-353.24304	1299.50659	1202.06384	-384.7532	1166.51721	1189.27991	-414.55313	1043.72668	1162.25891	-401.14087	903.78143	1177.31531	-443.26407	924.91296	1144.11523	-445.5119	858.552	1133.86365	-326.85867	1502.6665	1649.33618	-367.74677	1327.12561	1748.88208	-346.24933	1187.04114	1798.08826	-283.33582	1082.2605	1819.79419	-198.63054	977.70081	1799.47754	-238.92133	960.04712	1835.54224	-181.62863	914.77429	1836.03284	-219.8847	983.26001	1358.86963	-224.4429	978.8775	1614.40161	-425.71353	1039.55579	1428.55334	-432.56946	1042.24866	1543.25623	-262.0134	663.95862	1328.67334	-277.91953	467.40894	1386.0415	-340.92657	283.37793	1409.47668	-344.42294	67.20004	1470.50159	-377.63309	43.0062	1526.24524	-191.92216	33.03748	1445.07568	-289.55804	681.09344	1707.00708	-282.86075	480.89651	1704.33606	-426.091	366.86313	1694.22827	-556.34119	229.00235	1651.6416	-599.15149	202.2032	1584.07959	-501.96561	86.46587	1704.27026	-271.80942	1810.28711	1480.37463	2845.96265	1034.58777	-3356.78638	NaN	NaN	NaN
43	0.42	-168.32762	1729.91748	1392.07959	-167.57208	1718.74451	1536.3147	-307.0741	1671.75671	1389.94629	-319.1463	1660.75244	1532.94702	-372.858	1530.09509	1462.4729	-424.45435	1253.37109	1477.43909	-236.32817	1461.49634	1458.00659	-183.20232	1290.98865	1474.2821	-435.86057	1354.46594	1527.89136	-300.52109	1498.84192	1285.67981	-336.41812	1300.09143	1201.99426	-364.77429	1166.19299	1189.40222	-390.48572	1042.14685	1163.6106	-373.09857	902.59692	1180.69592	-413.90457	922.09601	1147.24524	-414.65097	855.8764	1137.12732	-313.92581	1503.71411	1649.23462	-356.80569	1328.00928	1747.52307	-337.60898	1187.44324	1795.7926	-278.0257	1080.73804	1817.58252	-196.99953	973.16888	1797.68152	-237.83861	957.06409	1833.75916	-182.35812	909.45898	1834.14417	-207.32988	984.70404	1358.198	-210.44171	982.03864	1613.47266	-412.46661	1040.88782	1428.06226	-418.89133	1044.04761	1542.90649	-255.6405	663.89966	1329.53198	-275.03644	467.5079	1386.36987	-339.43649	283.8078	1409.67993	-344.21597	67.46394	1470.62134	-377.19452	43.24201	1526.80042	-191.87032	32.99199	1444.99072	-268.99445	683.78656	1706.59143	-256.69	483.74338	1703.16528	-396.15936	365.0188	1693.4873	-522.31677	223.05127	1651.53821	-565.12378	193.82706	1584.4812	-460.76089	83.74403	1704.0835	-258.88708	1811.63232	1480.0979	2846.22607	1034.32886	-3356.93262	NaN	NaN	NaN
44	0.43	-155.14339	1731.08423	1391.99084	-154.46597	1719.82117	1536.29431	-293.91287	1672.8501	1389.84912	-305.87589	1661.56274	1532.77588	-359.54877	1531.19824	1462.15918	-411.2887	1254.52722	1476.46228	-223.24713	1462.74377	1457.73706	-170.07713	1292.11523	1473.72437	-422.72186	1355.41846	1526.9585	-287.45346	1500.43384	1285.5249	-319.45105	1300.89783	1201.84863	-344.69644	1165.7959	1189.51575	-366.51398	1040.55566	1164.68286	-344.06418	901.81476	1184.41858	-384.79324	919.39862	1150.02844	-382.94302	853.16229	1140.48999	-301.04654	1504.5282	1648.86816	-345.76315	1328.5636	1745.99451	-328.7576	1187.67993	1793.46375	-272.68576	1079.15356	1815.7533	-195.04425	968.7287	1796.14172	-236.8972	954.14795	1832.03625	-183.36421	904.41138	1832.52625	-194.71089	985.80817	1357.51978	-196.2626	984.88	1612.21277	-399.25491	1041.8894	1427.77222	-405.29849	1045.53223	1542.82043	-249.52086	663.86768	1330.42102	-272.0712	467.59531	1386.63757	-337.94336	284.25916	1409.89355	-344.0531	67.71874	1470.76721	-377.14169	43.58516	1526.88599	-191.82999	32.95906	1444.89636	-248.60216	686.3844	1706.2771	-231.0233	486.14047	1701.29333	-366.15656	362.65497	1692.79016	-487.39114	215.99239	1651.52075	-530.27374	184.62807	1585.12646	-418.2886	80.50045	1703.44141	-245.62315	1812.802	1480.24939	2846.16406	1034.37402	-3356.68018	NaN	NaN	NaN
